<svg version="1.1" id="Layer_1" xmlns="http://www.w3.org/2000/svg" xmlns:xlink="http://www.w3.org/1999/xlink" x="0px" y="0px"
	 width="100%" viewBox="0 0 1024 1024" enable-background="new 0 0 1024 1024" xml:space="preserve">
<path fill="#000000" opacity="1.000000" stroke="none" 
	d="
M483.536743,932.623169 
	C466.034973,923.662903 453.103729,910.003113 441.129791,895.377686 
	C420.151001,869.753479 402.948212,841.648865 387.346313,812.507751 
	C364.619263,770.058167 346.340424,725.827515 334.446472,679.119934 
	C327.942932,653.580444 323.891479,627.581848 324.787659,601.134766 
	C326.243835,558.160583 337.000336,517.730164 358.820160,480.399689 
	C372.305908,457.327545 388.935791,436.875244 408.626343,418.885681 
	C411.583527,416.183960 412.782715,413.985443 410.374847,410.056488 
	C407.473328,405.322083 406.680542,399.801880 406.700378,394.203278 
	C406.751709,379.705627 406.534119,365.204376 406.789581,350.711060 
	C406.938354,342.271820 408.584198,334.229797 415.108643,327.894104 
	C419.395966,323.730804 424.431427,321.546722 430.173706,320.840607 
	C433.498077,320.431793 434.599701,318.776154 434.744476,315.559723 
	C435.664490,295.119293 436.712402,274.684509 437.764984,254.250259 
	C437.961609,250.432816 438.158264,246.593979 438.732941,242.822632 
	C439.501129,237.781067 437.048676,236.056396 432.501556,235.474899 
	C418.003540,233.620850 403.594910,231.185638 389.257843,228.332794 
	C308.316376,212.226807 231.061859,186.298492 160.739807,142.108078 
	C138.141937,127.907578 116.613647,112.202644 96.985977,94.031647 
	C93.940666,91.212341 90.679855,88.262932 92.254601,83.346581 
	C94.645462,75.882225 101.766357,73.488495 108.083771,78.391769 
	C115.316299,84.005318 122.071320,90.231697 129.267120,95.895378 
	C156.191086,117.086723 185.057144,135.156815 215.857864,150.240509 
	C263.906433,173.770813 314.001892,191.442215 366.119385,203.326248 
	C387.488678,208.198944 409.081268,212.047821 430.875916,214.601913 
	C438.673981,215.515732 438.914856,215.334747 441.096313,207.772156 
	C444.871552,194.684326 455.164429,186.975311 470.524872,186.833649 
	C499.184723,186.569336 527.850220,186.597672 556.510559,186.835297 
	C571.462952,186.959274 582.283386,196.196609 585.385010,210.976196 
	C586.299805,215.334930 588.172485,217.313507 592.762024,216.714569 
	C603.958435,215.253387 615.211121,214.197617 626.382385,212.574539 
	C655.026611,208.412811 683.288696,202.487381 711.108826,194.372147 
	C747.199829,183.844284 781.801331,169.776398 815.126953,152.399719 
	C852.864868,132.722397 887.517334,108.686974 918.988647,80.051529 
	C921.490356,77.775284 924.042908,75.566254 927.682678,75.742867 
	C931.875366,75.946304 934.941467,78.032753 936.630066,81.894699 
	C938.298218,85.710052 937.383362,89.231010 934.485229,91.953293 
	C927.931641,98.109360 921.414856,104.340012 914.475159,110.044044 
	C852.231873,161.204575 781.564453,195.671204 703.933716,216.530472 
	C675.622437,224.137650 646.979065,229.833801 618.011719,234.042511 
	C610.620056,235.116425 603.150513,235.692078 595.702332,236.328674 
	C587.875854,236.997604 587.035767,238.066528 587.913147,245.918274 
	C588.874329,254.520859 588.351196,263.188446 589.100403,271.841034 
	C590.362061,286.412354 590.732056,301.065826 591.252197,315.692719 
	C591.371338,319.043762 592.651672,320.219391 595.831665,320.876709 
	C612.704834,324.364410 619.104431,332.122955 619.314819,349.618011 
	C619.513062,366.098694 619.336914,382.583923 619.324768,399.067139 
	C619.321899,402.995392 618.446594,406.920715 616.244324,409.970062 
	C613.443970,413.847595 614.858398,416.245056 617.627747,418.956146 
	C626.439453,427.582520 634.980957,436.464233 642.698242,446.104828 
	C670.925171,481.366638 689.308777,521.128967 697.303101,565.629028 
	C700.251282,582.040039 701.840332,598.602722 701.090210,615.258850 
	C700.236572,634.211731 697.418457,652.919189 693.024231,671.415588 
	C678.690247,731.752075 653.844482,787.654663 622.163452,840.719299 
	C606.319519,867.257385 589.058838,892.723633 566.556946,914.200317 
	C555.360535,924.886597 542.998230,933.769714 527.814331,938.073914 
	C512.407227,942.441284 497.860931,940.006042 483.536743,932.623169 
M649.404419,491.038330 
	C635.295593,466.167480 617.846558,444.071777 595.543274,425.973358 
	C591.626282,422.794800 587.451172,421.045837 582.279846,421.239899 
	C575.123657,421.508392 567.949463,421.259338 560.783813,421.324921 
	C554.750549,421.380188 554.147766,421.898773 554.334290,427.999634 
	C554.959351,448.441376 555.633850,468.885864 557.406189,489.267914 
	C559.054321,508.223206 564.381714,525.810242 576.854370,540.734192 
	C579.620544,544.044006 581.976807,547.726685 584.275024,551.392395 
	C598.094238,573.434082 601.659485,597.486755 597.890503,622.865112 
	C596.827026,630.026001 594.257141,636.658875 589.542175,642.363586 
	C578.756653,655.413147 559.254150,656.979187 544.622864,647.541260 
	C541.168030,645.312683 538.851746,645.373413 535.344299,647.728699 
	C521.542053,656.997192 506.991486,656.635254 492.870758,648.757385 
	C487.874512,645.970154 484.562469,645.539368 479.483948,648.622375 
	C463.123718,658.554016 440.520599,653.660522 432.451263,633.515991 
	C429.095917,625.139648 428.224426,616.404114 427.825806,607.633179 
	C426.610199,580.886475 434.722260,557.190186 451.606842,536.366943 
	C459.375854,526.785767 464.573425,515.841125 466.726227,503.591980 
	C471.211426,478.072357 470.763062,452.234467 471.711212,426.484253 
	C471.854828,422.584198 470.386353,421.145782 466.481140,421.234711 
	C457.819366,421.431885 449.149353,421.381500 440.484619,421.275909 
	C437.488403,421.239410 435.058197,422.119568 432.678375,423.935425 
	C421.493591,432.469757 411.484833,442.326721 402.371399,452.904541 
	C373.231842,486.726624 354.875977,525.766235 347.692535,569.914490 
	C343.733276,594.247559 344.258453,618.660828 347.754395,642.947632 
	C352.037903,672.705994 360.698090,701.342529 371.462128,729.368530 
	C390.665192,779.367004 414.995911,826.647156 446.560852,870.016418 
	C457.250214,884.703247 468.693878,898.790649 483.498505,909.770813 
	C502.742584,924.043579 520.427979,924.566833 540.034363,910.746887 
	C553.374390,901.343933 564.136169,889.282715 574.103821,876.491272 
	C601.515137,841.314392 622.789551,802.484497 641.024109,761.995789 
	C655.189270,730.543091 666.785706,698.122314 674.341431,664.329346 
	C680.604919,636.315613 683.075317,608.037476 679.426941,579.604980 
	C675.428101,548.441772 665.273560,519.093079 649.404419,491.038330 
M551.322327,536.067993 
	C549.805969,532.918823 548.198608,529.809814 546.788086,526.613953 
	C538.315979,507.418884 537.941589,486.790588 536.888916,466.431396 
	C536.202454,453.154297 535.011658,439.835388 535.715027,426.502777 
	C535.921753,422.584351 534.351501,421.182556 530.478577,421.238129 
	C519.315186,421.398193 508.147675,421.247894 496.982697,421.337311 
	C491.168304,421.383881 490.231079,422.297699 490.361969,428.062958 
	C490.721344,443.891205 490.016327,459.699310 489.195068,475.485657 
	C488.644379,486.070374 487.808624,496.676575 485.687439,507.127716 
	C482.163269,524.491272 474.312561,539.732300 463.199188,553.359741 
	C447.368011,572.772339 445.646729,595.511047 447.571320,619.095093 
	C447.769012,621.517944 448.709656,623.971741 449.729462,626.218811 
	C452.739868,632.851685 457.094635,635.368530 463.957886,634.777100 
	C470.243866,634.235352 475.403961,629.769226 477.008972,623.445007 
	C478.096771,619.158691 477.643829,614.840515 477.202942,610.527039 
	C476.553619,604.174133 479.626190,600.052490 485.286804,599.687439 
	C492.200348,599.241638 496.126465,602.696960 496.271179,609.469238 
	C496.356567,613.466858 496.322144,617.467957 496.285828,621.466980 
	C496.260681,624.235779 497.021271,626.720520 498.710846,628.913147 
	C503.056122,634.552185 511.812256,637.198914 518.520752,634.907104 
	C526.308594,632.246582 530.510803,626.569763 530.617920,618.454956 
	C530.655273,615.623596 530.534546,612.790344 530.504944,609.957764 
	C530.430664,602.859863 532.973511,599.821960 539.084229,599.688782 
	C545.830017,599.541687 549.219055,602.812500 549.325317,609.649048 
	C549.377075,612.981201 549.314880,616.315063 549.325989,619.648010 
	C549.353088,627.799377 555.230835,634.603638 562.966003,635.454712 
	C569.262756,636.147522 576.947449,630.270752 578.439941,622.943481 
	C582.593262,602.553589 580.706238,582.946533 570.296082,564.510925 
	C564.791504,554.762695 556.872253,546.657959 551.322327,536.067993 
M544.493774,207.104843 
	C519.844177,207.127060 495.194275,207.086212 470.545258,207.213913 
	C464.033295,207.247650 460.789307,209.779037 460.195496,216.239334 
	C458.919922,230.117447 458.081543,244.043182 457.389069,257.965576 
	C456.472534,276.392792 455.891144,294.836487 455.114746,313.270935 
	C454.828613,320.065277 455.315704,320.682129 462.233551,320.685181 
	C496.044800,320.700043 529.856079,320.695679 563.667297,320.686035 
	C571.723694,320.683716 572.109009,320.094086 571.591492,312.150604 
	C570.834656,300.535461 570.302368,288.905518 569.700256,277.280548 
	C568.677063,257.527557 567.762329,237.768417 566.615723,218.022659 
	C566.201477,210.889740 562.118774,207.304291 554.983276,207.145279 
	C551.820068,207.074783 548.654419,207.114014 544.493774,207.104843 
M540.500000,401.864044 
	C554.823425,401.889648 569.149475,401.751556 583.469421,401.987579 
	C597.374817,402.216705 600.313416,400.616058 599.737183,385.351685 
	C599.443420,377.570709 599.401550,377.300934 591.429565,377.300629 
	C540.464539,377.298676 489.499512,377.298126 438.534485,377.300964 
	C426.297455,377.301636 426.297455,377.308289 426.333649,389.396027 
	C426.363770,399.451752 428.548859,401.843689 438.570923,401.863708 
	C472.213806,401.930847 505.856964,401.873322 540.500000,401.864044 
M502.499969,358.730408 
	C528.991699,358.728943 555.483459,358.729645 581.975159,358.723694 
	C586.140381,358.722748 590.306335,358.733490 594.470520,358.659271 
	C596.964111,358.614807 599.234863,357.977997 599.590210,355.006897 
	C600.635864,346.263672 598.272278,340.139008 588.094482,340.191040 
	C538.278076,340.445557 488.459534,340.306305 438.641754,340.313568 
	C429.861755,340.314850 426.560059,343.938812 426.199768,352.732330 
	C425.995453,357.718292 427.867218,358.857239 432.522400,358.816437 
	C455.513397,358.614990 478.507141,358.727631 502.499969,358.730408 
z"/>
</svg>